<svg width="800" height="800" viewBox="0 0 800 800" fill="none" xmlns="http://www.w3.org/2000/svg">
<path fill-rule="evenodd" clip-rule="evenodd" d="M704.043 90.235C664.99 51.1827 601.677 51.1823 562.623 90.235L506.63 146.228L243.096 409.76C238.824 414.033 235.794 419.387 234.329 425.247L200.995 558.58C198.155 569.94 201.484 581.957 209.763 590.233C218.042 598.513 230.059 601.843 241.418 599.003L374.75 565.67C380.613 564.203 385.963 561.173 390.237 556.9L651.853 295.286L709.763 237.375C748.817 198.323 748.817 135.006 709.763 95.954L704.043 90.235ZM609.763 137.375C622.78 124.358 643.887 124.358 656.903 137.375L662.623 143.094C675.64 156.112 675.64 177.218 662.623 190.235L628.74 224.119L576.893 170.246L609.763 137.375ZM529.743 217.395L581.59 271.268L349.627 503.233L279.146 520.853L296.765 450.373L529.743 217.395ZM133.333 266.665C133.333 248.255 148.257 233.331 166.667 233.331H333.333C351.743 233.331 366.667 218.408 366.667 199.998C366.667 181.589 351.743 166.665 333.333 166.665H166.667C111.438 166.665 66.6666 211.436 66.6666 266.665V633.33C66.6666 688.56 111.438 733.33 166.667 733.33H533.333C588.563 733.33 633.333 688.56 633.333 633.33V466.663C633.333 448.257 618.41 433.33 600 433.33C581.59 433.33 566.667 448.257 566.667 466.663V633.33C566.667 651.74 551.743 666.663 533.333 666.663H166.667C148.257 666.663 133.333 651.74 133.333 633.33V266.665Z" fill="white"/>
</svg>
