<svg width="800" height="800" viewBox="0 0 800 800" fill="none" xmlns="http://www.w3.org/2000/svg">
<path d="M566.667 400C566.667 492.047 492.047 566.667 400 566.667C307.953 566.667 233.333 492.047 233.333 400C233.333 307.953 307.953 233.333 400 233.333C492.047 233.333 566.667 307.953 566.667 400Z" fill="#040404"/>
<path fill-rule="evenodd" clip-rule="evenodd" d="M400 41.6667C413.807 41.6667 425 52.8597 425 66.6667V133.333C425 147.14 413.807 158.333 400 158.333C386.193 158.333 375 147.14 375 133.333V66.6667C375 52.8597 386.193 41.6667 400 41.6667ZM122.288 123.87C131.605 113.68 147.418 112.972 157.608 122.288L231.675 190.008C241.865 199.325 242.573 215.138 233.257 225.328C223.94 235.518 208.127 236.226 197.937 226.909L123.87 159.19C113.68 149.873 112.972 134.06 122.288 123.87ZM677.713 123.87C687.03 134.06 686.32 149.873 676.13 159.19L602.063 226.909C591.873 236.226 576.06 235.518 566.743 225.328C557.427 215.138 558.133 199.325 568.323 190.008L642.393 122.288C652.583 112.972 668.393 113.68 677.713 123.87ZM41.6667 400C41.6667 386.193 52.8597 375 66.6667 375H133.333C147.14 375 158.333 386.193 158.333 400C158.333 413.807 147.14 425 133.333 425H66.6667C52.8597 425 41.6667 413.807 41.6667 400ZM641.667 400C641.667 386.193 652.86 375 666.667 375H733.333C747.14 375 758.333 386.193 758.333 400C758.333 413.807 747.14 425 733.333 425H666.667C652.86 425 641.667 413.807 641.667 400ZM567.517 567.507C577.28 557.743 593.11 557.743 602.873 567.507L676.94 641.583C686.703 651.347 686.7 667.177 676.937 676.94C667.173 686.703 651.343 686.7 641.583 676.937L567.517 602.86C557.753 593.097 557.753 577.27 567.517 567.507ZM232.489 567.51C242.252 577.273 242.252 593.103 232.489 602.867L158.415 676.94C148.652 686.703 132.823 686.703 123.059 676.94C113.296 667.177 113.296 651.347 123.059 641.587L197.134 567.51C206.897 557.747 222.726 557.747 232.489 567.51ZM400 641.667C413.807 641.667 425 652.86 425 666.667V733.333C425 747.14 413.807 758.333 400 758.333C386.193 758.333 375 747.14 375 733.333V666.667C375 652.86 386.193 641.667 400 641.667Z" fill="#040404"/>
</svg>
