<svg width="800" height="800" viewBox="0 0 800 800" fill="none" xmlns="http://www.w3.org/2000/svg">
<path d="M663.337 76.9063C657.973 63.2533 638.72 63.2533 633.357 76.9063L619.01 113.416C617.373 117.584 614.087 120.884 609.933 122.528L573.557 136.927C559.953 142.311 559.953 161.633 573.557 167.018L609.933 181.417C614.087 183.061 617.373 186.361 619.01 190.529L633.357 227.038C638.72 240.691 657.973 240.691 663.337 227.039L677.683 190.529C679.32 186.361 682.607 183.061 686.76 181.417L723.137 167.018C736.74 161.633 736.74 142.311 723.137 136.927L686.76 122.528C682.607 120.884 679.32 117.584 677.683 113.416L663.337 76.9063Z" fill="white"/>
<path d="M534.427 270.989C529.06 257.336 509.81 257.336 504.443 270.989L499.213 284.301C497.577 288.469 494.29 291.768 490.137 293.412L476.873 298.662C463.27 304.047 463.27 323.369 476.873 328.754L490.137 334.003C494.29 335.647 497.577 338.947 499.213 343.117L504.443 356.427C509.81 370.08 529.06 370.08 534.427 356.427L539.657 343.117C541.293 338.947 544.58 335.647 548.733 334.003L561.997 328.754C575.6 323.369 575.6 304.047 561.997 298.662L548.733 293.412C544.58 291.768 541.293 288.469 539.657 284.301L534.427 270.989Z" fill="white"/>
<path d="M400 733.333C584.093 733.333 733.333 584.093 733.333 400C733.333 384.577 710.217 382.027 702.24 395.227C664.297 458.02 595.383 500 516.667 500C397.003 500 300 402.997 300 283.333C300 204.615 341.98 135.702 404.773 97.7587C417.973 89.7824 415.423 66.6667 400 66.6667C215.905 66.6667 66.6666 215.905 66.6666 400C66.6666 584.093 215.905 733.333 400 733.333Z" fill="white"/>
</svg>
